<?xml version="1.0" encoding="UTF-8" standalone="no"?>
<!DOCTYPE svg PUBLIC "-//W3C//DTD SVG 1.1//EN" "http://www.w3.org/Graphics/SVG/1.1/DTD/svg11.dtd">
<!-- Generated by graphviz version 2.40.1 (20161225.0304)
 -->
<!-- Title: network Pages: 1 --><svg xmlns="http://www.w3.org/2000/svg" xmlns:xlink="http://www.w3.org/1999/xlink" width="469pt" height="98pt" viewBox="0.00 0.00 469.21 98.00">
  <g id="graph0" class="graph" transform="scale(1 1) rotate(0) translate(4 94)">
    <title>network</title>
    <polygon fill="#ffffff" stroke="transparent" points="-4,4 -4,-94 465.2072,-94 465.2072,4 -4,4" />
    <!-- router1 -->
    <g id="node1" class="node">
      <title>router1</title>
      <ellipse fill="none" stroke="#000000" cx="175.2857" cy="-18" rx="38.844" ry="18" />
      <text text-anchor="middle" x="175.2857" y="-13.8" font-family="Times,serif" font-size="14.00" fill="#000000">router1</text>
    </g>
    <!-- router2 -->
    <g id="node2" class="node">
      <title>router2</title>
      <ellipse fill="none" stroke="#000000" cx="298.7855" cy="-18" rx="38.844" ry="18" />
      <text text-anchor="middle" x="298.7855" y="-13.8" font-family="Times,serif" font-size="14.00" fill="#000000">router2</text>
    </g>
    <!-- router1&#45;&#45;router2 -->
    <g id="edge1" class="edge">
      <title>router1--router2</title>
      <path fill="none" stroke="#000000" d="M214.3618,-18C228.7779,-18 245.1086,-18 259.5397,-18" />
    </g>
    <!-- router3 -->
    <g id="node3" class="node">
      <title>router3</title>
      <ellipse fill="none" stroke="#000000" cx="422.2853" cy="-45" rx="38.844" ry="18" />
      <text text-anchor="middle" x="422.2853" y="-40.8" font-family="Times,serif" font-size="14.00" fill="#000000">router3</text>
    </g>
    <!-- router2&#45;&#45;router3 -->
    <g id="edge2" class="edge">
      <title>router2--router3</title>
      <path fill="none" stroke="#000000" d="M334.1756,-25.7371C350.7119,-29.3524 370.353,-33.6464 386.89,-37.2618" />
    </g>
    <!-- producer1 -->
    <g id="node4" class="node">
      <title>producer1</title>
      <ellipse fill="none" stroke="#000000" cx="50.1819" cy="-18" rx="50.3645" ry="18" />
      <text text-anchor="middle" x="50.1819" y="-13.8" font-family="Times,serif" font-size="14.00" fill="#000000">producer1</text>
    </g>
    <!-- producer1&#45;&#45;router1 -->
    <g id="edge3" class="edge">
      <title>producer1--router1</title>
      <path fill="none" stroke="#000000" d="M100.7058,-18C112.5055,-18 124.8986,-18 136.119,-18" />
    </g>
    <!-- consumer -->
    <g id="node5" class="node">
      <title>consumer</title>
      <ellipse fill="none" stroke="#000000" cx="298.7855" cy="-72" rx="48.6559" ry="18" />
      <text text-anchor="middle" x="298.7855" y="-67.8" font-family="Times,serif" font-size="14.00" fill="#000000">consumer</text>
    </g>
    <!-- consumer&#45;&#45;router3 -->
    <g id="edge4" class="edge">
      <title>consumer--router3</title>
      <path fill="none" stroke="#000000" d="M340.9417,-62.7836C355.8953,-59.5144 372.5592,-55.8713 386.8913,-52.738" />
    </g>
  </g>
</svg>